<?xml version="1.0" standalone="no"?>
<!DOCTYPE svg PUBLIC "-//W3C//DTD SVG 20010904//EN"
 "http://www.w3.org/TR/2001/REC-SVG-20010904/DTD/svg10.dtd">
<svg version="1.0" xmlns="http://www.w3.org/2000/svg"
 width="215.000000pt" height="217.000000pt" viewBox="0 0 215.000000 217.000000"
 preserveAspectRatio="xMidYMid meet">

<g transform="translate(0.000000,217.000000) scale(0.100000,-0.100000)"
fill="#000000" stroke="none">
<path d="M0 1085 l0 -1085 1075 0 1075 0 0 1085 0 1085 -1075 0 -1075 0 0
-1085z m1110 526 c5 -11 11 -31 12 -45 2 -16 10 -27 24 -30 47 -12 36 -78 -11
-69 -34 7 -33 -15 2 -28 38 -14 87 -8 91 12 2 10 -6 19 -18 22 -18 5 -20 9
-10 26 6 12 19 21 30 21 10 0 30 11 44 25 58 57 64 19 14 -90 l-39 -88 33 -28
33 -29 -57 26 c-85 37 -177 50 -251 35 -49 -10 -62 -10 -69 1 -8 10 -9 9 -5
-3 4 -11 -5 -21 -28 -32 -19 -9 -53 -33 -77 -54 l-42 -38 23 33 c13 18 41 45
62 59 21 14 39 30 39 36 0 6 -23 55 -50 109 -47 91 -49 98 -29 98 11 0 37 -16
56 -34 18 -19 35 -34 36 -34 10 7 47 -14 47 -27 0 -12 -5 -15 -21 -10 -17 6
-20 3 -17 -17 2 -19 10 -24 40 -26 39 -3 78 11 78 29 0 6 -8 9 -17 7 -46 -7
-60 45 -18 64 15 7 25 20 25 32 0 27 27 66 45 66 8 0 19 -9 25 -19z m72 -265
c60 -18 121 -60 123 -86 2 -19 0 -19 -41 5 -134 78 -304 65 -399 -31 -128
-131 -133 -322 -11 -452 25 -27 43 -52 40 -55 -4 -3 2 -6 12 -6 11 1 37 -6 59
-15 45 -17 163 -21 215 -6 20 5 56 23 82 39 43 28 51 26 38 -9 -1 -3 -2 -8 -1
-12 0 -4 -30 -22 -66 -40 -60 -29 -77 -33 -149 -33 -75 0 -88 3 -158 39 -87
44 -135 93 -175 176 -21 46 -26 69 -26 140 0 76 3 92 32 151 31 62 117 158
130 145 3 -3 11 1 18 10 32 44 189 67 277 40z m245 -245 c22 -78 14 -181 -20
-248 -15 -28 -31 -54 -37 -58 -16 -10 -11 35 10 95 25 70 25 145 2 218 -11 31
-20 70 -20 87 l-2 29 25 -34 c14 -19 33 -59 42 -89z m-485 -31 l3 -40 45 40
c34 30 54 39 80 39 l35 0 -39 -33 -39 -34 40 -63 c22 -35 43 -70 47 -76 5 -9
-1 -13 -18 -13 -20 0 -34 12 -62 55 -20 30 -40 55 -44 55 -18 0 -50 -44 -50
-69 0 -27 -21 -47 -34 -34 -3 4 -6 53 -6 110 0 95 1 103 19 103 16 0 20 -8 23
-40z m233 -45 l0 -80 53 -3 c48 -3 53 -5 50 -25 -3 -20 -10 -22 -75 -25 l-73
-3 0 111 c0 109 0 111 22 108 21 -3 22 -8 23 -83z"/>
</g>
</svg>
